<svg version="1.1"
	 xmlns="http://www.w3.org/2000/svg" xmlns:xlink="http://www.w3.org/1999/xlink" xmlns:a="http://ns.adobe.com/AdobeSVGViewerExtensions/3.0/"
	 x="0px" y="0px" width="45.6px" height="45.6px" viewBox="0 0 45.6 45.6" enable-background="new 0 0 45.6 45.6"
	 xml:space="preserve">
<defs>
</defs>
<path opacity="0.8" fill="#414042" d="M25.4,43.7c0,1-0.9,1.9-1.9,1.9h-1.4c-1,0-1.9-0.9-1.9-1.9v-7.2c0-1.1,0.9-1.9,1.9-1.9h1.4
	c1.1,0,1.9,0.9,1.9,1.9V43.7z"/>
<path fill="#414042" d="M25.4,9.1c0,1.1-0.9,1.9-1.9,1.9h-1.4c-1,0-1.9-0.9-1.9-1.9V1.9c0-1,0.9-1.9,1.9-1.9h1.4
	c1.1,0,1.9,0.9,1.9,1.9V9.1z"/>
<path fill="#414042" d="M1.9,25.4c-1,0-1.9-0.9-1.9-1.9v-1.4c0-1,0.9-1.9,1.9-1.9h7.2c1,0,1.9,0.9,1.9,1.9v1.4c0,1-0.9,1.9-1.9,1.9
	H1.9z"/>
<path opacity="0.4" fill="#414042" d="M36.5,25.4c-1,0-1.9-0.9-1.9-1.9v-1.4c0-1,0.9-1.9,1.9-1.9h7.2c1,0,1.9,0.9,1.9,1.9v1.4
	c0,1-0.9,1.9-1.9,1.9H36.5z"/>
<path fill="#414042" d="M9.9,39.4c-0.7,0.7-1.9,0.7-2.7,0l-1-1c-0.7-0.7-0.7-1.9,0-2.7l5.1-5.1c0.7-0.7,1.9-0.7,2.7,0l1,1
	c0.7,0.7,0.7,1.9,0,2.7L9.9,39.4z"/>
<path opacity="0.1" fill="#414042" d="M34.3,15c-0.7,0.7-1.9,0.7-2.7,0l-1-1c-0.7-0.7-0.7-1.9,0-2.7l5.1-5.1c0.7-0.7,1.9-0.7,2.7,0
	l1,1c0.7,0.7,0.7,1.9,0,2.7L34.3,15z"/>
<path fill="#414042" d="M6.2,9.9c-0.7-0.7-0.7-1.9,0-2.7l1-1c0.7-0.7,1.9-0.7,2.7,0l5.1,5.1c0.7,0.7,0.7,1.9,0,2.7l-1,1
	c-0.7,0.7-1.9,0.7-2.7,0L6.2,9.9z"/>
<path opacity="0.6" fill="#414042" d="M30.6,34.3c-0.7-0.7-0.7-1.9,0-2.7l1-1c0.7-0.7,1.9-0.7,2.7,0l5.1,5.1c0.7,0.7,0.7,1.9,0,2.7
	l-1,1c-0.7,0.7-1.9,0.7-2.7,0L30.6,34.3z"/>
</svg>